<svg id="Capa_1" enable-background="new 0 0 512 512" height="512" viewBox="0 0 512 512" width="512" xmlns="http://www.w3.org/2000/svg"><g><path d="m512 256c0 82.483-39.009 155.854-99.584 202.673-1.001.774-7.765-4.432-8.778-3.673-14.629 10.966-30.471 20.402-47.288 28.071-1.582.721 2.584 7.4.985 8.09-31.076 13.409-65.338 20.839-101.335 20.839-141.385 0-256-114.615-256-256s114.615-256 256-256 256 114.615 256 256z" fill="#55a4f9"/><path d="m460 245.5c0 114.323-92.677 207-207 207s-207-92.677-207-207 92.677-207 207-207 207 92.677 207 207z" fill="#76b6fa"/><path d="m110 15v340c0 8.284-6.716 15-15 15h-34c-8.284 0-15-6.716-15-15v-340c0-8.284 6.716-15 15-15h34c8.284 0 15 6.716 15 15z" fill="#3342ae"/><path d="m286 15v340c0 8.284-6.716 15-15 15h-176c-8.284 0-15-6.716-15-15v-340c0-8.284 6.716-15 15-15h176c8.284 0 15 6.716 15 15z" fill="#3d4ec6"/><path d="m231 240h-120c-2.761 0-5-2.239-5-5 0-2.761 2.239-5 5-5h120c2.761 0 5 2.239 5 5 0 2.761-2.239 5-5 5zm-5 15c0-2.761-2.239-5-5-5h-100c-2.761 0-5 2.239-5 5 0 2.761 2.239 5 5 5h100c2.761 0 5-2.239 5-5zm-10 40c0-2.761-2.239-5-5-5h-80c-2.761 0-5 2.239-5 5 0 2.761 2.239 5 5 5h80c2.761 0 5-2.239 5-5zm20-20c0-2.761-2.239-5-5-5h-120c-2.761 0-5 2.239-5 5 0 2.761 2.239 5 5 5h120c2.761 0 5-2.239 5-5zm25-245v310c0 2.761-2.238 5-5 5h-180c-2.761 0-5-2.239-5-5v-310c0-2.761 2.239-5 5-5h180c2.762 0 5 2.239 5 5zm-77.071 305 67.071-67.071v-165.858l-67.071-67.071h-35.857l-67.072 67.071v165.857l67.071 67.072zm14.142-300 52.929 52.929v-52.929zm-117.071 52.929 52.929-52.929h-52.929zm52.929 247.071-52.929-52.929v52.929zm117.071-52.929-52.929 52.929h52.929z" fill="#232e7a"/><path d="m221.667 167.252-55.667 48.479-55.667-48.479c-14.895-12.972-18.773-37.697-8.832-56.315 31.02-39.853 64.499 6.186 64.499 6.186s27.391-46.038 64.499-6.186c9.94 18.617 6.062 43.343-8.832 56.315z" fill="#ff2ea6"/><path d="m221.667 167.252-33.107 28.832-40.554-35.317c-17.47-15.214-23.429-42.709-15.271-65.861 18.761 2.27 33.265 22.216 33.265 22.216s27.391-46.038 64.499-6.186c9.94 18.618 6.062 43.344-8.832 56.316z" fill="#ff50b5"/><path d="m322.482 114.299-87.998 328.415c-2.144 8.002-10.369 12.751-18.371 10.607l-32.841-8.8c-8.002-2.144-12.751-10.369-10.607-18.371l87.998-328.415c2.144-8.002 10.369-12.751 18.371-10.607l32.841 8.8c8.003 2.144 12.751 10.369 10.607 18.371z" fill="#922d72"/><path d="m492.485 159.851-7.436 27.753v.001l-72.632 271.068c-16.822 13.002-35.306 23.955-55.081 32.488l-141.223-37.841c-8.002-2.144-12.751-10.369-10.607-18.371l55.31-206.418c.001-.005.002-.009.004-.014l32.685-121.983c2.144-8.002 10.369-12.751 18.371-10.607l170.003 45.552c8.002 2.145 12.75 10.37 10.606 18.372z" fill="#ac3586"/><path d="m399.862 290.668-16.257 14.564c-.597.535-.817 1.375-.559 2.133l7.026 20.665c.414 1.217-.411 2.502-1.69 2.633l-21.713 2.227c-.797.082-1.469.632-1.706 1.397l-6.463 20.848c-.38 1.227-1.803 1.783-2.915 1.137l-18.875-10.961c-.693-.403-1.56-.352-2.202.128l-17.483 13.068c-1.029.769-2.507.382-3.027-.793l-8.827-19.962c-.324-.733-1.055-1.202-1.856-1.191l-21.825.296c-1.285.017-2.253-1.164-1.982-2.421l4.592-21.338c.169-.784-.147-1.592-.802-2.055l-17.83-12.589c-1.05-.741-1.138-2.266-.181-3.123l16.257-14.564c.597-.535.817-1.375.559-2.133l-7.026-20.665c-.414-1.217.411-2.502 1.69-2.633l21.713-2.227c.797-.082 1.469-.632 1.706-1.397l6.463-20.848c.38-1.227 1.803-1.783 2.915-1.137l18.875 10.961c.693.403 1.56.352 2.202-.128l17.483-13.068c1.029-.769 2.507-.382 3.027.793l8.827 19.962c.324.733 1.055 1.202 1.856 1.191l21.825-.296c1.285-.017 2.253 1.164 1.982 2.421l-4.592 21.338c-.169.784.147 1.592.802 2.055l17.83 12.589c1.05.741 1.138 2.266.181 3.123z" fill="#ffcd71"/><path d="m369.792 302.972c-5.508 20.554-26.635 32.752-47.189 27.245-20.554-5.508-32.752-26.635-27.245-47.189 5.508-20.554 26.635-32.752 47.189-27.245 20.555 5.507 32.752 26.635 27.245 47.189z" fill="#ffb52d"/><path d="m334.556 331.202c-3.902.192-7.899-.21-11.875-1.276-20.554-5.508-32.752-26.635-27.245-47.189 5.508-20.555 26.635-32.752 47.189-27.245 3.976 1.065 7.639 2.715 10.922 4.832-16.268.801-30.872 11.942-35.314 28.521-4.443 16.579 2.634 33.53 16.323 42.357z" fill="#ff9f22"/><path d="m461.178 160.78-67.615-18.117h-.001l-106.25-28.47c-2.667-.715-5.409.868-6.124 3.536l-62.116 231.821v.001l-18.117 67.615c-.715 2.667.868 5.409 3.536 6.124l67.615 18.117h.001l106.251 28.47c2.668.715 5.409-.868 6.124-3.536l80.234-299.437c.712-2.668-.87-5.41-3.538-6.124zm-67.704 233.357-82.145 47.426-34.637-9.281-47.426-82.145 42.927-160.206 82.145-47.427 34.637 9.281 47.426 82.145zm-68.485 51.087 64.824-37.426-13.699 51.125zm-99.383-81.426 37.426 64.824-51.125-13.699zm63.947-238.652 51.125 13.699-64.824 37.426zm150.508 95.124-37.426-64.824 51.125 13.699z" fill="#ff2ea6"/><path d="m385.806 61.262 5.618 11.825c.198.416.532.751.948.948l11.825 5.618c1.522.723 1.522 2.89 0 3.613l-11.825 5.618c-.416.198-.751.532-.948.948l-5.618 11.825c-.723 1.522-2.89 1.522-3.613 0l-5.618-11.825c-.198-.416-.532-.751-.948-.948l-11.825-5.618c-1.522-.723-1.522-2.89 0-3.613l11.825-5.618c.416-.198.751-.532.948-.948l5.618-11.825c.724-1.522 2.89-1.522 3.613 0zm-.722 118.77-19.282 9.161c-1.522.723-1.522 2.89 0 3.613l19.282 9.161c.416.198.751.532.948.948l9.161 19.282c.723 1.522 2.89 1.522 3.613 0l9.161-19.282c.198-.416.532-.751.948-.948l19.282-9.161c1.522-.723 1.522-2.89 0-3.613l-19.282-9.161c-.416-.198-.751-.532-.948-.948l-9.161-19.282c-.723-1.522-2.89-1.522-3.613 0l-9.161 19.282c-.197.416-.532.751-.948.948z" fill="#ffb52d"/><path d="m337.87 108.802 5.618 11.825c.198.416.532.751.948.948l11.825 5.618c1.522.723 1.522 2.89 0 3.613l-11.825 5.618c-.416.198-.751.532-.948.948l-5.618 11.825c-.723 1.522-2.89 1.522-3.613 0l-5.618-11.825c-.198-.416-.532-.751-.948-.948l-11.825-5.618c-1.522-.723-1.522-2.89 0-3.613l11.825-5.618c.416-.198.751-.532.948-.948l5.618-11.825c.724-1.522 2.89-1.522 3.613 0zm-210.064 43 5.618 11.825c.198.416.532.751.948.948l11.825 5.618c1.522.723 1.522 2.89 0 3.613l-11.825 5.618c-.416.198-.751.532-.948.948l-5.618 11.825c-.723 1.522-2.89 1.522-3.613 0l-5.618-11.825c-.198-.416-.532-.751-.948-.948l-11.825-5.618c-1.522-.723-1.522-2.89 0-3.613l11.825-5.618c.416-.198.751-.532.948-.948l5.618-11.825c.724-1.522 2.89-1.522 3.613 0z" fill="#fff5f5"/></g></svg>